<svg xmlns="http://www.w3.org/2000/svg" xmlns:xlink="http://www.w3.org/1999/xlink" width="486" height="70" viewBox="0 0 486 70" fill="none"><defs><linearGradient id="linear_0" x1="0%" y1="100%" x2="100%" y2="-13.79310344827586%" gradientUnits="objectBoundingBox"><stop offset="0" stop-color="#F1EBFF" stop-opacity="1" /><stop offset="1" stop-color="#D8C7FF" stop-opacity="1" /></linearGradient><radialGradient id="linear_1" cx="52.05499999999999%" cy="17.72986206896551%" fx="52.05499999999999%" fy="17.72986206896551%" r="0.7340987768866777" gradientTransform="translate(0.52055 0.1772986206896551) scale(1.3621212121212125 1) rotate(343.4792919806296) scale(1 0.32) translate(-0.52055 -0.1772986206896551)" ><stop offset="0" stop-color="#5E1AFF" stop-opacity="0.57" /><stop offset="1" stop-color="#5E1AFF" stop-opacity="0.01" /></radialGradient><radialGradient id="linear_2" cx="30.397999999999996%" cy="49.21413793103447%" fx="30.397999999999996%" fy="49.21413793103447%" r="0.5459721820157849" gradientTransform="translate(0.30398 0.49214137931034474) scale(1.3621212121212125 1) rotate(20.195992215725596) scale(1 0.39) translate(-0.30398 -0.49214137931034474)" ><stop offset="0" stop-color="#5E1AFF" stop-opacity="0.47" /><stop offset="1" stop-color="#5E1AFF" stop-opacity="0.01" /></radialGradient><linearGradient id="linear_3" x1="0%" y1="100%" x2="100%" y2="0%" gradientUnits="objectBoundingBox"><stop offset="0" stop-color="#5E1AFF" stop-opacity="1" /><stop offset="1" stop-color="#7949EB" stop-opacity="1" /></linearGradient><linearGradient id="linear_4" x1="0%" y1="100%" x2="69.645%" y2="36.879999999999995%" gradientUnits="objectBoundingBox"><stop offset="0" stop-color="#7949EB" stop-opacity="1" /><stop offset="1" stop-color="#5E1AFF" stop-opacity="1" /></linearGradient><radialGradient id="linear_5" cx="50%" cy="74.433%" fx="50%" fy="74.433%" r="0.19553832258664788" gradientTransform="translate(0.5 0.74433) scale(0.7 1) rotate(66.81248623069962) scale(1 4.81) translate(-0.5 -0.74433)" ><stop offset="0" stop-color="#FFFFFF" stop-opacity="0.2" /><stop offset="1" stop-color="#FFFFFF" stop-opacity="0.002" /></radialGradient><linearGradient id="linear_6" x1="0%" y1="100%" x2="100%" y2="0%" gradientUnits="objectBoundingBox"><stop offset="0" stop-color="#5E1AFF" stop-opacity="1" /><stop offset="1" stop-color="#7949EB" stop-opacity="1" /></linearGradient><radialGradient id="linear_7" cx="50%" cy="73.56099999999999%" fx="50%" fy="73.56099999999999%" r="0.4655317647593986" gradientTransform="translate(0.5 0.73561) scale(0.85 1) rotate(133.0620188108877) scale(1 1.48) translate(-0.5 -0.73561)" ><stop offset="0" stop-color="#FFFFFF" stop-opacity="0.16" /><stop offset="1" stop-color="#FFFFFF" stop-opacity="0.002" /></radialGradient><radialGradient id="linear_8" cx="22.361%" cy="17.862000000000002%" fx="22.361%" fy="17.862000000000002%" r="0.3122706430326104" gradientTransform="translate(0.22361 0.17862) scale(0.85 1) rotate(113.8751654601096) scale(1 4.81) translate(-0.22361 -0.17862)" ><stop offset="0" stop-color="#FFFFFF" stop-opacity="0.002" /><stop offset="1" stop-color="#FFFFFF" stop-opacity="0.002" /></radialGradient><radialGradient id="linear_9" cx="96.46100000000001%" cy="59.155%" fx="96.46100000000001%" fy="59.155%" r="0.7161468389234152" gradientTransform="translate(0.9646100000000001 0.59155) scale(0.85 1) rotate(130.3416396475833) scale(1 1.0555555555555556) translate(-0.9646100000000001 -0.59155)" ><stop offset="0" stop-color="#FFFFFF" stop-opacity="0.3" /><stop offset="1" stop-color="#FFFFFF" stop-opacity="0.003" /></radialGradient><radialGradient id="linear_10" cx="22.361%" cy="17.862000000000002%" fx="22.361%" fy="17.862000000000002%" r="0.2065396245275952" gradientTransform="translate(0.22361 0.17862) scale(0.85 1) rotate(103.81601751707109) scale(1 4.81) translate(-0.22361 -0.17862)" ><stop offset="0" stop-color="#FFFFFF" stop-opacity="0.172" /><stop offset="1" stop-color="#FFFFFF" stop-opacity="0.002" /></radialGradient></defs><g opacity="1" transform="translate(0 0)  rotate(0 243 35)"><path id="文本 1" fill-rule="evenodd" style="fill:#000000" transform="translate(83 11)  rotate(0 193.99999999999994 24)" opacity="1" d="M57.74 5.23C57.74 3 59.36 1.5 59.36 1.5C60.97 0 63.55 0 63.55 0C66.12 0 67.74 1.44 67.74 1.44C69.36 2.88 69.36 5.05 69.36 5.05C69.36 7.39 67.74 8.92 67.74 8.92C66.12 10.45 63.55 10.45 63.55 10.45C60.97 10.45 59.36 8.95 59.36 8.95C57.74 7.45 57.74 5.23 57.74 5.23ZM337.45 8.95C337.45 8.95 339.07 10.45 341.64 10.45C341.64 10.45 344.22 10.45 345.83 8.92C345.83 8.92 347.45 7.39 347.45 5.05C347.45 5.05 347.45 2.88 345.83 1.44C345.83 1.44 344.22 0 341.64 0C341.64 0 339.07 0 337.45 1.5C337.45 1.5 335.83 3 335.83 5.23C335.83 5.23 335.83 7.45 337.45 8.95ZM50.19 47.28L40.85 47.28L40.85 2.7L50.19 2.7L50.19 47.28ZM319 18.38C319 18.38 315.53 14.48 309.36 14.48C309.36 14.48 304.81 14.48 301.12 16.52C301.12 16.52 297.44 18.56 295.34 22.35C295.34 22.35 293.25 26.13 293.25 31.12C293.25 31.12 293.25 36.11 295.34 39.89C295.34 39.89 297.44 43.67 301.12 45.72C301.12 45.72 304.81 47.76 309.36 47.76C309.36 47.76 315.95 47.76 319.42 43.55L319.42 47.28L328.34 47.28L328.34 2.7L319 2.7L319 18.38ZM33.06 8.23L30.07 15.62C24.26 12.32 18.45 12.32 18.45 12.32C14.37 12.32 12.43 13.64 12.43 13.64C10.48 14.96 10.48 17.12 10.48 17.12C10.48 19.28 12.73 20.34 12.73 20.34C14.97 21.39 19.59 22.41 19.59 22.41C24.38 23.55 27.43 24.69 27.43 24.69C30.49 25.83 32.67 28.3 32.67 28.3C34.86 30.76 34.86 34.96 34.86 34.96C34.86 38.57 32.85 41.54 32.85 41.54C30.85 44.52 26.83 46.26 26.83 46.26C22.82 48 17.07 48 17.07 48C12.1 48 7.46 46.65 7.46 46.65C2.82 45.3 0 43.13 0 43.13L3.29 35.8C5.99 37.79 9.7 38.99 9.7 38.99C13.42 40.19 17.13 40.19 17.13 40.19C21.26 40.19 23.24 38.96 23.24 38.96C25.22 37.73 25.22 35.68 25.22 35.68C25.22 34.18 24.05 33.19 24.05 33.19C22.88 32.2 21.05 31.6 21.05 31.6C19.23 31 16.11 30.28 16.11 30.28C11.32 29.14 8.27 27.99 8.27 27.99C5.21 26.85 3.02 24.33 3.02 24.33C0.84 21.81 0.84 17.6 0.84 17.6C0.84 13.94 2.82 10.96 2.82 10.96C4.79 7.99 8.77 6.25 8.77 6.25C12.76 4.51 18.51 4.51 18.51 4.51C22.52 4.51 26.35 5.47 26.35 5.47C30.19 6.43 33.06 8.23 33.06 8.23ZM193.28 10.96C195.26 7.99 199.24 6.25 199.24 6.25C203.22 4.51 208.97 4.51 208.97 4.51C212.99 4.51 216.82 5.47 216.82 5.47C220.65 6.43 223.53 8.23 223.53 8.23L220.53 15.62C214.72 12.32 208.91 12.32 208.91 12.32C204.84 12.32 202.89 13.64 202.89 13.64C200.95 14.96 200.95 17.12 200.95 17.12C200.95 19.28 203.19 20.34 203.19 20.34C205.44 21.39 210.05 22.41 210.05 22.41C214.84 23.55 217.9 24.69 217.9 24.69C220.95 25.83 223.14 28.3 223.14 28.3C225.33 30.76 225.33 34.96 225.33 34.96C225.33 38.57 223.32 41.54 223.32 41.54C221.31 44.52 217.3 46.26 217.3 46.26C213.29 48 207.54 48 207.54 48C202.56 48 197.92 46.65 197.92 46.65C193.28 45.3 190.47 43.13 190.47 43.13L193.76 35.8C196.46 37.79 200.17 38.99 200.17 38.99C203.88 40.19 207.6 40.19 207.6 40.19C211.73 40.19 213.71 38.96 213.71 38.96C215.68 37.73 215.68 35.68 215.68 35.68C215.68 34.18 214.51 33.19 214.51 33.19C213.35 32.2 211.52 31.6 211.52 31.6C209.69 31 206.58 30.28 206.58 30.28C201.79 29.14 198.73 27.99 198.73 27.99C195.68 26.85 193.49 24.33 193.49 24.33C191.3 21.81 191.3 17.6 191.3 17.6C191.3 13.94 193.28 10.96 193.28 10.96ZM151.23 7.81L151.23 36.17C151.23 36.17 151.23 41.87 154.38 44.82C154.38 44.82 157.52 47.76 163.27 47.76C163.27 47.76 165.49 47.76 167.5 47.25C167.5 47.25 169.5 46.74 170.88 45.72L168.36 39.11C168.36 39.11 166.81 40.31 164.59 40.31C164.59 40.31 162.67 40.31 161.63 39.2C161.63 39.2 160.58 38.09 160.58 36.05L160.58 22.89L168.6 22.89L168.6 15.68L160.58 15.68L160.58 7.81L151.23 7.81ZM246.83 15.68L246.83 22.89L238.8 22.89L238.8 36.05C238.8 38.09 239.85 39.2 239.85 39.2C240.9 40.31 242.81 40.31 242.81 40.31C245.03 40.31 246.59 39.11 246.59 39.11L249.1 45.72C247.73 46.74 245.72 47.25 245.72 47.25C243.71 47.76 241.5 47.76 241.5 47.76C235.75 47.76 232.6 44.82 232.6 44.82C229.46 41.87 229.46 36.17 229.46 36.17L229.46 7.81L238.8 7.81L238.8 15.68L246.83 15.68ZM76.79 39.71C74.51 35.92 74.51 31.12 74.51 31.12C74.51 26.37 76.76 22.56 76.76 22.56C79 18.74 82.92 16.61 82.92 16.61C86.85 14.48 91.7 14.48 91.7 14.48C96.43 14.48 100.26 16.52 100.26 16.52C104.1 18.56 106.28 22.38 106.28 22.38C108.47 26.19 108.47 31.24 108.47 31.24C108.47 31.42 108.29 33.76 108.29 33.76L83.91 33.76C84.57 36.77 87.03 38.51 87.03 38.51C89.48 40.25 93.14 40.25 93.14 40.25C95.65 40.25 97.6 39.5 97.6 39.5C99.55 38.75 101.22 37.13 101.22 37.13L106.19 42.53C101.64 47.76 92.9 47.76 92.9 47.76C87.45 47.76 83.25 45.63 83.25 45.63C79.06 43.49 76.79 39.71 76.79 39.71ZM144.71 39.59L137.46 35.62C137.46 35.62 135 40.07 130.21 40.07C130.21 40.07 126.56 40.07 124.16 37.67C124.16 37.67 121.77 35.26 121.77 31.12C121.77 31.12 121.77 26.97 124.16 24.57C124.16 24.57 126.56 22.17 130.21 22.17C130.21 22.17 134.94 22.17 137.46 26.61L144.71 22.71C144.71 22.71 142.97 18.74 139.17 16.61C139.17 16.61 135.36 14.48 130.27 14.48C130.27 14.48 125.12 14.48 121.02 16.61C121.02 16.61 116.92 18.74 114.61 22.53C114.61 22.53 112.3 26.31 112.3 31.12C112.3 31.12 112.3 35.92 114.61 39.71C114.61 39.71 116.92 43.49 121.02 45.63C121.02 45.63 125.12 47.76 130.27 47.76C130.27 47.76 135.36 47.76 139.17 45.6C139.17 45.6 142.97 43.43 144.71 39.59ZM354.88 22.53C357.15 18.74 361.2 16.61 361.2 16.61C365.24 14.48 370.33 14.48 370.33 14.48C375.42 14.48 379.44 16.61 379.44 16.61C383.45 18.74 385.72 22.53 385.72 22.53C388 26.31 388 31.12 388 31.12C388 35.92 385.72 39.71 385.72 39.71C383.45 43.49 379.44 45.63 379.44 45.63C375.42 47.76 370.33 47.76 370.33 47.76C365.24 47.76 361.2 45.63 361.2 45.63C357.15 43.49 354.88 39.71 354.88 39.71C352.6 35.92 352.6 31.12 352.6 31.12C352.6 26.31 354.88 22.53 354.88 22.53ZM68.22 47.28L68.22 14.96L58.88 14.96L58.88 47.28L68.22 47.28ZM275.46 37.46C275.46 37.46 273.42 39.65 270.07 39.65C270.07 39.65 263.54 39.65 263.54 31.84L263.54 14.96L254.19 14.96L254.19 33.22C254.19 33.22 254.19 40.43 257.91 44.1C257.91 44.1 261.62 47.76 267.97 47.76C267.97 47.76 270.97 47.76 273.54 46.65C273.54 46.65 276.12 45.54 277.97 43.43L277.97 47.28L286.84 47.28L286.84 14.96L277.49 14.96L277.49 30.94C277.49 30.94 277.49 35.26 275.46 37.46ZM336.97 47.28L336.97 14.96L346.31 14.96L346.31 47.28L336.97 47.28ZM97.03 23.4C94.87 21.57 91.76 21.57 91.76 21.57C88.58 21.57 86.43 23.37 86.43 23.37C84.27 25.17 83.79 28.3 83.79 28.3L99.67 28.3C99.19 25.23 97.03 23.4 97.03 23.4ZM305.05 24.6C305.05 24.6 307.38 22.17 310.97 22.17C310.97 22.17 314.51 22.17 316.84 24.6C316.84 24.6 319.18 27.03 319.18 31.12C319.18 31.12 319.18 35.2 316.84 37.64C316.84 37.64 314.51 40.07 310.97 40.07C310.97 40.07 307.38 40.07 305.05 37.64C305.05 37.64 302.71 35.2 302.71 31.12C302.71 31.12 302.71 27.03 305.05 24.6ZM370.33 22.17C366.74 22.17 364.4 24.6 364.4 24.6C362.07 27.03 362.07 31.12 362.07 31.12C362.07 35.2 364.4 37.64 364.4 37.64C366.74 40.07 370.33 40.07 370.33 40.07C373.92 40.07 376.23 37.64 376.23 37.64C378.54 35.2 378.54 31.12 378.54 31.12C378.54 27.03 376.23 24.6 376.23 24.6C373.92 22.17 370.33 22.17 370.33 22.17Z" /><g opacity="1" transform="translate(0 0)  rotate(0 35 35)"><path id="矩形 1" fill-rule="evenodd" fill="url(#linear_0)" transform="translate(14 13.52)  rotate(0 20 27.24242424242425)" opacity="1" d="M10.5,51.03L40,41.33L40,20.62C40,18.27 38.97,16.03 37.17,14.51L20,0L0,7.52L0,43.43C0,46 1.23,48.41 3.31,49.91C5.39,51.42 8.06,51.83 10.5,51.03Z " /><path id="矩形 1" fill-rule="evenodd" fill="url(#linear_1)" transform="translate(14 13.52)  rotate(0 20 27.24242424242425)" opacity="1" d="M10.5,51.03L40,41.33L40,20.62C40,18.27 38.97,16.03 37.17,14.51L20,0L0,7.52L0,43.43C0,46 1.23,48.41 3.31,49.91C5.39,51.42 8.06,51.83 10.5,51.03Z " /><path id="矩形 1" fill-rule="evenodd" fill="url(#linear_2)" transform="translate(14 13.52)  rotate(0 20 27.24242424242425)" opacity="1" d="M10.5,51.03L40,41.33L40,20.62C40,18.27 38.97,16.03 37.17,14.51L20,0L0,7.52L0,43.43C0,46 1.23,48.41 3.31,49.91C5.39,51.42 8.06,51.83 10.5,51.03Z " /><path id="路径 1" fill-rule="evenodd" fill="url(#linear_3)" transform="translate(14 6)  rotate(0 20 14)" opacity="1" d="M0,14.93L0,28L37.29,15.35C38.91,14.8 40,13.27 40,11.56L40,0L0,14.93Z " /><path id="路径 1" fill-rule="evenodd" fill="url(#linear_4)" transform="translate(14 40)  rotate(0 20 14)" opacity="1" d="M0,14.42L0,16.97C0,19.53 1.23,21.94 3.3,23.45C5.37,24.95 8.04,25.37 10.48,24.58L40,14.93L40,0L0,14.42Z " /><path id="路径 1" fill-rule="evenodd" fill="url(#linear_5)" transform="translate(14 40)  rotate(0 20 14)" opacity="1" d="M0,14.42L0,16.97C0,19.53 1.23,21.94 3.3,23.45C5.37,24.95 8.04,25.37 10.48,24.58L40,14.93L40,0L0,14.42Z " /><path id="路径 1" fill-rule="evenodd" fill="url(#linear_6)" transform="translate(14 21)  rotate(0 20 17)" opacity="1" d="M2.48,18.54L40,34L40,20.13C40,18.54 39.06,17.11 37.6,16.47L0,0L0,14.84C0,16.46 0.98,17.92 2.48,18.54Z " /><path id="路径 1" fill-rule="evenodd" fill="url(#linear_7)" transform="translate(14 21)  rotate(0 20 17)" opacity="1" d="M2.48,18.54L40,34L40,20.13C40,18.54 39.06,17.11 37.6,16.47L0,0L0,14.84C0,16.46 0.98,17.92 2.48,18.54Z " /><path id="路径 1" fill-rule="evenodd" fill="url(#linear_8)" transform="translate(14 21)  rotate(0 20 17)" opacity="1" d="M2.48,18.54L40,34L40,20.13C40,18.54 39.06,17.11 37.6,16.47L0,0L0,14.84C0,16.46 0.98,17.92 2.48,18.54Z " /><path id="路径 1" fill-rule="evenodd" fill="url(#linear_9)" transform="translate(14 21)  rotate(0 20 17)" opacity="1" d="M2.48,18.54L40,34L40,20.13C40,18.54 39.06,17.11 37.6,16.47L0,0L0,14.84C0,16.46 0.98,17.92 2.48,18.54Z " /><path id="路径 1" fill-rule="evenodd" fill="url(#linear_10)" transform="translate(14 21)  rotate(0 20 17)" opacity="1" d="M2.48,18.54L40,34L40,20.13C40,18.54 39.06,17.11 37.6,16.47L0,0L0,14.84C0,16.46 0.98,17.92 2.48,18.54Z " /></g></g></svg>